/* XPM */
static char * current_xpm[] = {
"16 16 3 1",
" 	c None",
"#	c #ffffff",
"@	c #0000ff",
"     @@@@@@     ",
"   @@      @@   ",
"  @          @  ",
" @   @@@@@@   @ ",
" @   @    @   @ ",
"@    @@@@@@    @",
"@     @@@@     @",
"@      @@      @",
"@     @  @     @",
"@    @    @    @",
"@    @ @@ @    @",
" @   @@@@@@   @ ",
" @            @ ",
"  @          @  ",
"   @@      @@   ",
"     @@@@@@     ",
};
