/* XPM */
static char * ok_xpm[] = {
"16 16 3 1",
" 	c None",
"#	c #ffffff",
"@	c #00aa00",
"     @@@@@@     ",
"   @@      @@   ",
"  @          @  ",
" @            @ ",
" @            @ ",
"@          @@  @",
"@         @ @  @",
"@        @ @   @",
"@  @@   @ @    @",
"@  @ @ @ @     @",
"@   @ @ @      @",
" @   @ @      @ ",
" @    @       @ ",
"  @          @  ",
"   @@      @@   ",
"     @@@@@@     ",
};
